# xmcd CD database file
#
# Track frame offsets:
#	150
#	25304
#	43690
#	62645
#	80911
#	88319
#	111997
#	126741
#	147532
#	171573
#	186371
#	202024
#
# Disc length: 2950 seconds
#
# Revision: 0
# Processed by: cddbd v1.5.2PL0 Copyright (c) Steve Scherf et al.
# Submitted via: CDex 1.77
#
DISCID=c70b840c
DTITLE=The Nukes - Lucky Ones
DYEAR=2014
DGENRE=Ukulele
TTITLE0=Last Kauri
TTITLE1=Wait And See
TTITLE2=Flip Flop
TTITLE3=Worms
TTITLE4=Two Potatoes
TTITLE5=Lucky Ones
TTITLE6=Bro Jesus
TTITLE7=Bruce
TTITLE8=Falling Snow
TTITLE9=Lemon Tree
TTITLE10=Mr Longface
TTITLE11=Henderson High
EXTD=YEAR: 2014
EXTT0=
EXTT1=
EXTT2=
EXTT3=
EXTT4=
EXTT5=
EXTT6=
EXTT7=
EXTT8=
EXTT9=
EXTT10=
EXTT11=
PLAYORDER=
